<mxfile host="app.diagrams.net" modified="2021-01-08T03:46:15.237Z" agent="5.0 (Windows NT 6.1; WOW64) AppleWebKit/537.36 (KHTML, like Gecko) Chrome/87.0.4280.88 Safari/537.36" etag="M5zcIAte571UydlkCdFH" version="14.1.8" type="github">
  <diagram name="Page-1" id="12e1b939-464a-85fe-373e-61e167be1490">
    <mxGraphModel dx="1108" dy="1689" grid="1" gridSize="10" guides="1" tooltips="1" connect="1" arrows="1" fold="1" page="1" pageScale="1.5" pageWidth="1169" pageHeight="826" background="#ffffff" math="0" shadow="0">
      <root>
        <mxCell id="0" />
        <mxCell id="1" parent="0" />
        <mxCell id="kvO_svWgyWc9nyd4nfGL-1" value="" style="whiteSpace=wrap;html=1;rounded=1;dashed=1;dashPattern=1 4;arcSize=0;" vertex="1" parent="1">
          <mxGeometry x="50" y="-50" width="1130" height="700" as="geometry" />
        </mxCell>
        <mxCell id="kvO_svWgyWc9nyd4nfGL-2" value="" style="shape=ext;rounded=1;html=1;whiteSpace=wrap;dashed=1;dashPattern=1 4;arcSize=0;fillColor=#f5f5f5;strokeColor=#666666;fontColor=#333333;" vertex="1" parent="1">
          <mxGeometry x="190" y="-50" width="920" height="560" as="geometry" />
        </mxCell>
        <mxCell id="kvO_svWgyWc9nyd4nfGL-3" value="" style="shape=ext;rounded=1;html=1;whiteSpace=wrap;dashed=1;dashPattern=1 4;fillColor=#fff2cc;strokeColor=#d6b656;" vertex="1" parent="1">
          <mxGeometry x="444" y="-20" width="160" height="110" as="geometry" />
        </mxCell>
        <mxCell id="kvO_svWgyWc9nyd4nfGL-4" value="" style="aspect=fixed;perimeter=ellipsePerimeter;html=1;align=center;shadow=0;dashed=0;spacingTop=3;image;image=img/lib/active_directory/database_cube.svg;" vertex="1" parent="1">
          <mxGeometry x="461.5" y="40" width="45" height="50" as="geometry" />
        </mxCell>
        <mxCell id="kvO_svWgyWc9nyd4nfGL-5" value="" style="aspect=fixed;perimeter=ellipsePerimeter;html=1;align=center;shadow=0;dashed=0;spacingTop=3;image;image=img/lib/active_directory/database_cube.svg;" vertex="1" parent="1">
          <mxGeometry x="541.5" y="40" width="45" height="50" as="geometry" />
        </mxCell>
        <mxCell id="kvO_svWgyWc9nyd4nfGL-6" value="" style="aspect=fixed;perimeter=ellipsePerimeter;html=1;align=center;shadow=0;dashed=0;spacingTop=3;image;image=img/lib/active_directory/database_cube.svg;" vertex="1" parent="1">
          <mxGeometry x="499" width="45" height="50" as="geometry" />
        </mxCell>
        <mxCell id="kvO_svWgyWc9nyd4nfGL-7" value="" style="endArrow=classic;html=1;exitX=0;exitY=0.5;exitDx=0;exitDy=0;entryX=0.5;entryY=0;entryDx=0;entryDy=0;" edge="1" parent="1" source="kvO_svWgyWc9nyd4nfGL-3" target="kvO_svWgyWc9nyd4nfGL-8">
          <mxGeometry width="50" height="50" relative="1" as="geometry">
            <mxPoint x="290" y="40" as="sourcePoint" />
            <mxPoint x="350" y="120" as="targetPoint" />
            <Array as="points">
              <mxPoint x="330" y="35" />
            </Array>
          </mxGeometry>
        </mxCell>
        <mxCell id="kvO_svWgyWc9nyd4nfGL-8" value="" style="shape=ext;rounded=1;html=1;whiteSpace=wrap;dashed=1;dashPattern=1 4;fillColor=#fff2cc;strokeColor=#d6b656;" vertex="1" parent="1">
          <mxGeometry x="250" y="175" width="160" height="125" as="geometry" />
        </mxCell>
        <mxCell id="kvO_svWgyWc9nyd4nfGL-9" value="&lt;font style=&quot;vertical-align: inherit&quot;&gt;&lt;font style=&quot;vertical-align: inherit&quot;&gt;Gateway&lt;/font&gt;&lt;/font&gt;" style="rounded=0;whiteSpace=wrap;html=1;strokeWidth=1;" vertex="1" parent="1">
          <mxGeometry x="300" y="190" width="95" height="20" as="geometry" />
        </mxCell>
        <mxCell id="kvO_svWgyWc9nyd4nfGL-10" style="edgeStyle=orthogonalEdgeStyle;rounded=0;orthogonalLoop=1;jettySize=auto;html=1;exitX=0.5;exitY=1;exitDx=0;exitDy=0;" edge="1" parent="1" source="kvO_svWgyWc9nyd4nfGL-11" target="kvO_svWgyWc9nyd4nfGL-12">
          <mxGeometry relative="1" as="geometry" />
        </mxCell>
        <mxCell id="kvO_svWgyWc9nyd4nfGL-11" value="&lt;font style=&quot;vertical-align: inherit&quot;&gt;&lt;font style=&quot;vertical-align: inherit&quot;&gt;Gateway&lt;/font&gt;&lt;/font&gt;" style="rounded=0;whiteSpace=wrap;html=1;strokeWidth=1;" vertex="1" parent="1">
          <mxGeometry x="300" y="220" width="95" height="20" as="geometry" />
        </mxCell>
        <mxCell id="kvO_svWgyWc9nyd4nfGL-12" value="&lt;font style=&quot;vertical-align: inherit&quot;&gt;&lt;font style=&quot;vertical-align: inherit&quot;&gt;Gateway&lt;/font&gt;&lt;/font&gt;" style="rounded=0;whiteSpace=wrap;html=1;strokeWidth=1;" vertex="1" parent="1">
          <mxGeometry x="300" y="250" width="95" height="20" as="geometry" />
        </mxCell>
        <mxCell id="kvO_svWgyWc9nyd4nfGL-13" value="&lt;font style=&quot;vertical-align: inherit&quot;&gt;&lt;font style=&quot;vertical-align: inherit&quot;&gt;&lt;font style=&quot;vertical-align: inherit&quot;&gt;&lt;font style=&quot;vertical-align: inherit&quot;&gt;服务注册中心集群&lt;/font&gt;&lt;/font&gt;&lt;/font&gt;&lt;/font&gt;" style="text;html=1;strokeColor=none;fillColor=none;align=center;verticalAlign=middle;whiteSpace=wrap;rounded=0;" vertex="1" parent="1">
          <mxGeometry x="451.5" y="-20" width="140" height="20" as="geometry" />
        </mxCell>
        <mxCell id="kvO_svWgyWc9nyd4nfGL-14" value="" style="endArrow=classic;html=1;exitX=0.206;exitY=-0.045;exitDx=0;exitDy=0;exitPerimeter=0;" edge="1" parent="1" source="kvO_svWgyWc9nyd4nfGL-8">
          <mxGeometry width="50" height="50" relative="1" as="geometry">
            <mxPoint x="377" y="30" as="sourcePoint" />
            <mxPoint x="440" as="targetPoint" />
            <Array as="points">
              <mxPoint x="283" />
            </Array>
          </mxGeometry>
        </mxCell>
        <mxCell id="kvO_svWgyWc9nyd4nfGL-15" value="注册服务" style="text;html=1;strokeColor=none;fillColor=none;align=center;verticalAlign=middle;whiteSpace=wrap;rounded=0;" vertex="1" parent="1">
          <mxGeometry x="260" y="30" width="60" height="20" as="geometry" />
        </mxCell>
        <mxCell id="kvO_svWgyWc9nyd4nfGL-16" value="" style="aspect=fixed;perimeter=ellipsePerimeter;html=1;align=center;shadow=0;dashed=0;spacingTop=3;image;image=img/lib/active_directory/database_cube.svg;" vertex="1" parent="1">
          <mxGeometry x="302" y="190" width="18" height="20" as="geometry" />
        </mxCell>
        <mxCell id="kvO_svWgyWc9nyd4nfGL-17" value="" style="aspect=fixed;perimeter=ellipsePerimeter;html=1;align=center;shadow=0;dashed=0;spacingTop=3;image;image=img/lib/active_directory/database_cube.svg;" vertex="1" parent="1">
          <mxGeometry x="302" y="221" width="18" height="20" as="geometry" />
        </mxCell>
        <mxCell id="kvO_svWgyWc9nyd4nfGL-18" value="" style="aspect=fixed;perimeter=ellipsePerimeter;html=1;align=center;shadow=0;dashed=0;spacingTop=3;image;image=img/lib/active_directory/database_cube.svg;" vertex="1" parent="1">
          <mxGeometry x="301" y="251" width="18" height="20" as="geometry" />
        </mxCell>
        <mxCell id="kvO_svWgyWc9nyd4nfGL-19" value="" style="endArrow=classic;html=1;entryX=0.838;entryY=0;entryDx=0;entryDy=0;entryPerimeter=0;" edge="1" parent="1" target="kvO_svWgyWc9nyd4nfGL-8">
          <mxGeometry width="50" height="50" relative="1" as="geometry">
            <mxPoint x="440" y="70" as="sourcePoint" />
            <mxPoint x="360" y="185" as="targetPoint" />
            <Array as="points">
              <mxPoint x="384" y="70" />
            </Array>
          </mxGeometry>
        </mxCell>
        <mxCell id="kvO_svWgyWc9nyd4nfGL-20" value="获取服务列表" style="text;html=1;strokeColor=none;fillColor=none;align=center;verticalAlign=middle;whiteSpace=wrap;rounded=0;" vertex="1" parent="1">
          <mxGeometry x="300" y="85" width="60" height="20" as="geometry" />
        </mxCell>
        <mxCell id="kvO_svWgyWc9nyd4nfGL-21" value="获取配置信息" style="text;html=1;strokeColor=none;fillColor=none;align=center;verticalAlign=middle;whiteSpace=wrap;rounded=0;" vertex="1" parent="1">
          <mxGeometry x="360" y="120" width="50" height="20" as="geometry" />
        </mxCell>
        <mxCell id="kvO_svWgyWc9nyd4nfGL-22" value="&lt;font style=&quot;vertical-align: inherit&quot;&gt;&lt;font style=&quot;vertical-align: inherit&quot;&gt;API网关&lt;/font&gt;&lt;/font&gt;" style="text;html=1;strokeColor=none;fillColor=none;align=center;verticalAlign=middle;whiteSpace=wrap;rounded=0;" vertex="1" parent="1">
          <mxGeometry x="300" y="278" width="60" height="20" as="geometry" />
        </mxCell>
        <mxCell id="kvO_svWgyWc9nyd4nfGL-23" value="" style="shape=ext;rounded=1;html=1;whiteSpace=wrap;dashed=1;dashPattern=1 4;fillColor=#fff2cc;strokeColor=#d6b656;" vertex="1" parent="1">
          <mxGeometry x="893" y="151" width="150" height="205" as="geometry" />
        </mxCell>
        <mxCell id="kvO_svWgyWc9nyd4nfGL-24" value="&lt;font style=&quot;vertical-align: inherit&quot;&gt;&lt;font style=&quot;vertical-align: inherit&quot;&gt;ELK日志收集&lt;/font&gt;&lt;/font&gt;" style="text;html=1;strokeColor=none;fillColor=none;align=center;verticalAlign=middle;whiteSpace=wrap;rounded=0;" vertex="1" parent="1">
          <mxGeometry x="916.5" y="131" width="93" height="20" as="geometry" />
        </mxCell>
        <mxCell id="kvO_svWgyWc9nyd4nfGL-25" value="" style="shape=image;html=1;verticalAlign=top;verticalLabelPosition=bottom;labelBackgroundColor=#ffffff;imageAspect=0;aspect=fixed;image=https://cdn4.iconfinder.com/data/icons/logos-brands-5/24/kibana-128.png;strokeWidth=1;" vertex="1" parent="1">
          <mxGeometry x="933" y="154" width="34" height="34" as="geometry" />
        </mxCell>
        <mxCell id="kvO_svWgyWc9nyd4nfGL-26" value="&lt;font style=&quot;vertical-align: inherit&quot;&gt;&lt;font style=&quot;vertical-align: inherit&quot;&gt;&lt;font style=&quot;vertical-align: inherit&quot;&gt;&lt;font style=&quot;vertical-align: inherit&quot;&gt;Kibana&lt;/font&gt;&lt;/font&gt;&lt;/font&gt;&lt;/font&gt;" style="text;html=1;strokeColor=none;fillColor=none;align=center;verticalAlign=middle;whiteSpace=wrap;rounded=0;" vertex="1" parent="1">
          <mxGeometry x="917" y="188" width="66" height="20" as="geometry" />
        </mxCell>
        <mxCell id="kvO_svWgyWc9nyd4nfGL-27" value="" style="outlineConnect=0;dashed=0;verticalLabelPosition=bottom;verticalAlign=top;align=center;html=1;shape=mxgraph.aws3.elasticsearch_service;fillColor=#F58534;gradientColor=none;strokeWidth=1;" vertex="1" parent="1">
          <mxGeometry x="933.25" y="215" width="33.75" height="51" as="geometry" />
        </mxCell>
        <mxCell id="kvO_svWgyWc9nyd4nfGL-28" value="&lt;font style=&quot;vertical-align: inherit&quot;&gt;&lt;font style=&quot;vertical-align: inherit&quot;&gt;&lt;font style=&quot;vertical-align: inherit&quot;&gt;&lt;font style=&quot;vertical-align: inherit&quot;&gt;ElasticSearch&amp;nbsp;&amp;nbsp;&lt;/font&gt;&lt;/font&gt;&lt;/font&gt;&lt;/font&gt;" style="text;html=1;strokeColor=none;fillColor=none;align=center;verticalAlign=middle;whiteSpace=wrap;rounded=0;" vertex="1" parent="1">
          <mxGeometry x="924.13" y="266" width="66" height="20" as="geometry" />
        </mxCell>
        <mxCell id="kvO_svWgyWc9nyd4nfGL-29" value="" style="shape=image;html=1;verticalAlign=top;verticalLabelPosition=bottom;labelBackgroundColor=#ffffff;imageAspect=0;aspect=fixed;image=https://cdn4.iconfinder.com/data/icons/logos-brands-5/24/logstash-128.png;strokeWidth=1;" vertex="1" parent="1">
          <mxGeometry x="937.63" y="290" width="39" height="39" as="geometry" />
        </mxCell>
        <mxCell id="kvO_svWgyWc9nyd4nfGL-30" value="&lt;font style=&quot;vertical-align: inherit&quot;&gt;&lt;font style=&quot;vertical-align: inherit&quot;&gt;&lt;font style=&quot;vertical-align: inherit&quot;&gt;&lt;font style=&quot;vertical-align: inherit&quot;&gt;Logstash&lt;/font&gt;&lt;/font&gt;&lt;/font&gt;&lt;/font&gt;" style="text;html=1;strokeColor=none;fillColor=none;align=center;verticalAlign=middle;whiteSpace=wrap;rounded=0;" vertex="1" parent="1">
          <mxGeometry x="924.13" y="330.5" width="66" height="20" as="geometry" />
        </mxCell>
        <mxCell id="kvO_svWgyWc9nyd4nfGL-31" value="" style="endArrow=classic;html=1;entryX=1;entryY=0.75;entryDx=0;entryDy=0;" edge="1" parent="1">
          <mxGeometry width="50" height="50" relative="1" as="geometry">
            <mxPoint x="972" y="236" as="sourcePoint" />
            <mxPoint x="966" y="170.5" as="targetPoint" />
            <Array as="points">
              <mxPoint x="1022" y="236" />
              <mxPoint x="1022" y="171" />
            </Array>
          </mxGeometry>
        </mxCell>
        <mxCell id="kvO_svWgyWc9nyd4nfGL-32" value="" style="endArrow=classic;html=1;entryX=1;entryY=0.75;entryDx=0;entryDy=0;" edge="1" parent="1">
          <mxGeometry width="50" height="50" relative="1" as="geometry">
            <mxPoint x="975" y="317" as="sourcePoint" />
            <mxPoint x="969" y="251" as="targetPoint" />
            <Array as="points">
              <mxPoint x="1025" y="317" />
              <mxPoint x="1025" y="251.5" />
            </Array>
          </mxGeometry>
        </mxCell>
        <mxCell id="kvO_svWgyWc9nyd4nfGL-33" value="&lt;font style=&quot;vertical-align: inherit&quot;&gt;&lt;font style=&quot;vertical-align: inherit&quot;&gt;展示&lt;/font&gt;&lt;/font&gt;" style="text;html=1;strokeColor=none;fillColor=none;align=center;verticalAlign=middle;whiteSpace=wrap;rounded=0;" vertex="1" parent="1">
          <mxGeometry x="1004.25" y="184" width="40" height="20" as="geometry" />
        </mxCell>
        <mxCell id="kvO_svWgyWc9nyd4nfGL-34" value="&lt;font style=&quot;vertical-align: inherit&quot;&gt;&lt;font style=&quot;vertical-align: inherit&quot;&gt;&lt;font style=&quot;vertical-align: inherit&quot;&gt;&lt;font style=&quot;vertical-align: inherit&quot;&gt;服务&lt;/font&gt;&lt;/font&gt;&lt;/font&gt;&lt;/font&gt;" style="text;html=1;strokeColor=none;fillColor=none;align=center;verticalAlign=middle;whiteSpace=wrap;rounded=0;" vertex="1" parent="1">
          <mxGeometry x="1005.5" y="258" width="40" height="20" as="geometry" />
        </mxCell>
        <mxCell id="kvO_svWgyWc9nyd4nfGL-35" value="&lt;font style=&quot;vertical-align: inherit&quot;&gt;&lt;font style=&quot;vertical-align: inherit&quot;&gt;&lt;font style=&quot;vertical-align: inherit&quot;&gt;&lt;font style=&quot;vertical-align: inherit&quot;&gt;存储&lt;/font&gt;&lt;/font&gt;&lt;/font&gt;&lt;/font&gt;" style="text;html=1;strokeColor=none;fillColor=none;align=center;verticalAlign=middle;whiteSpace=wrap;rounded=0;" vertex="1" parent="1">
          <mxGeometry x="1005.5" y="290" width="40" height="20" as="geometry" />
        </mxCell>
        <mxCell id="kvO_svWgyWc9nyd4nfGL-36" value="Skywalking&lt;br&gt;调用链监控" style="shape=ext;rounded=1;html=1;whiteSpace=wrap;dashed=1;dashPattern=1 4;fillColor=#fa6800;strokeColor=#C73500;fontColor=#ffffff;" vertex="1" parent="1">
          <mxGeometry x="761.49" y="-7" width="130" height="37" as="geometry" />
        </mxCell>
        <mxCell id="kvO_svWgyWc9nyd4nfGL-37" value="Admin" style="text;html=1;strokeColor=none;fillColor=none;align=center;verticalAlign=middle;whiteSpace=wrap;rounded=0;" vertex="1" parent="1">
          <mxGeometry x="250" y="221" width="40" height="20" as="geometry" />
        </mxCell>
        <mxCell id="kvO_svWgyWc9nyd4nfGL-38" value="" style="shape=ext;rounded=1;html=1;whiteSpace=wrap;dashed=1;dashPattern=1 4;fillColor=#dae8fc;strokeColor=#6c8ebf;" vertex="1" parent="1">
          <mxGeometry x="550" y="210" width="230" height="189" as="geometry" />
        </mxCell>
        <mxCell id="kvO_svWgyWc9nyd4nfGL-39" value="" style="shape=ext;rounded=1;html=1;whiteSpace=wrap;dashed=1;dashPattern=1 4;" vertex="1" parent="1">
          <mxGeometry x="700.5" y="216" width="50" height="155" as="geometry" />
        </mxCell>
        <mxCell id="kvO_svWgyWc9nyd4nfGL-40" value="" style="aspect=fixed;perimeter=ellipsePerimeter;html=1;align=center;shadow=0;dashed=0;spacingTop=3;image;image=img/lib/active_directory/server_farm.svg;strokeWidth=1;" vertex="1" parent="1">
          <mxGeometry x="710" y="222" width="34.5" height="34.5" as="geometry" />
        </mxCell>
        <mxCell id="kvO_svWgyWc9nyd4nfGL-41" value="" style="aspect=fixed;perimeter=ellipsePerimeter;html=1;align=center;shadow=0;dashed=0;spacingTop=3;image;image=img/lib/active_directory/server_farm.svg;strokeWidth=1;" vertex="1" parent="1">
          <mxGeometry x="705.5" y="271" width="39" height="39" as="geometry" />
        </mxCell>
        <mxCell id="kvO_svWgyWc9nyd4nfGL-42" value="" style="aspect=fixed;perimeter=ellipsePerimeter;html=1;align=center;shadow=0;dashed=0;spacingTop=3;image;image=img/lib/active_directory/server_farm.svg;strokeWidth=1;" vertex="1" parent="1">
          <mxGeometry x="705.5" y="321" width="39" height="39" as="geometry" />
        </mxCell>
        <mxCell id="kvO_svWgyWc9nyd4nfGL-43" value="服务集群" style="text;html=1;strokeColor=none;fillColor=none;align=center;verticalAlign=middle;whiteSpace=wrap;rounded=0;" vertex="1" parent="1">
          <mxGeometry x="699.5" y="376.5" width="55" height="20" as="geometry" />
        </mxCell>
        <mxCell id="kvO_svWgyWc9nyd4nfGL-44" value="" style="shape=ext;rounded=1;html=1;whiteSpace=wrap;dashed=1;dashPattern=1 4;" vertex="1" parent="1">
          <mxGeometry x="581" y="214.5" width="50" height="155" as="geometry" />
        </mxCell>
        <mxCell id="kvO_svWgyWc9nyd4nfGL-45" value="" style="aspect=fixed;perimeter=ellipsePerimeter;html=1;align=center;shadow=0;dashed=0;spacingTop=3;image;image=img/lib/active_directory/server_farm.svg;strokeWidth=1;" vertex="1" parent="1">
          <mxGeometry x="586" y="220.5" width="39" height="39" as="geometry" />
        </mxCell>
        <mxCell id="kvO_svWgyWc9nyd4nfGL-46" value="" style="aspect=fixed;perimeter=ellipsePerimeter;html=1;align=center;shadow=0;dashed=0;spacingTop=3;image;image=img/lib/active_directory/server_farm.svg;strokeWidth=1;" vertex="1" parent="1">
          <mxGeometry x="586" y="269.5" width="39" height="39" as="geometry" />
        </mxCell>
        <mxCell id="kvO_svWgyWc9nyd4nfGL-47" value="" style="aspect=fixed;perimeter=ellipsePerimeter;html=1;align=center;shadow=0;dashed=0;spacingTop=3;image;image=img/lib/active_directory/server_farm.svg;strokeWidth=1;" vertex="1" parent="1">
          <mxGeometry x="586" y="319.5" width="39" height="39" as="geometry" />
        </mxCell>
        <mxCell id="kvO_svWgyWc9nyd4nfGL-48" value="服务集群" style="text;html=1;strokeColor=none;fillColor=none;align=center;verticalAlign=middle;whiteSpace=wrap;rounded=0;" vertex="1" parent="1">
          <mxGeometry x="580" y="375" width="55" height="20" as="geometry" />
        </mxCell>
        <mxCell id="kvO_svWgyWc9nyd4nfGL-49" value="" style="endArrow=classic;html=1;exitX=0.98;exitY=0.332;exitDx=0;exitDy=0;exitPerimeter=0;entryX=-0.01;entryY=0.323;entryDx=0;entryDy=0;entryPerimeter=0;" edge="1" parent="1" source="kvO_svWgyWc9nyd4nfGL-44" target="kvO_svWgyWc9nyd4nfGL-39">
          <mxGeometry width="50" height="50" relative="1" as="geometry">
            <mxPoint x="644" y="266.92499999999995" as="sourcePoint" />
            <mxPoint x="680" y="266" as="targetPoint" />
          </mxGeometry>
        </mxCell>
        <mxCell id="kvO_svWgyWc9nyd4nfGL-50" value="" style="endArrow=classic;html=1;exitX=1.02;exitY=0.661;exitDx=0;exitDy=0;exitPerimeter=0;entryX=0.03;entryY=0.645;entryDx=0;entryDy=0;entryPerimeter=0;" edge="1" parent="1" source="kvO_svWgyWc9nyd4nfGL-44" target="kvO_svWgyWc9nyd4nfGL-39">
          <mxGeometry width="50" height="50" relative="1" as="geometry">
            <mxPoint x="645" y="316.92499999999995" as="sourcePoint" />
            <mxPoint x="681" y="316" as="targetPoint" />
          </mxGeometry>
        </mxCell>
        <mxCell id="kvO_svWgyWc9nyd4nfGL-51" value="" style="endArrow=none;dashed=1;html=1;entryX=0.931;entryY=1.095;entryDx=0;entryDy=0;entryPerimeter=0;exitX=0.5;exitY=0;exitDx=0;exitDy=0;" edge="1" parent="1" source="kvO_svWgyWc9nyd4nfGL-24" target="kvO_svWgyWc9nyd4nfGL-36">
          <mxGeometry width="50" height="50" relative="1" as="geometry">
            <mxPoint x="834" y="105" as="sourcePoint" />
            <mxPoint x="884" y="55" as="targetPoint" />
          </mxGeometry>
        </mxCell>
        <mxCell id="kvO_svWgyWc9nyd4nfGL-52" value="traceId" style="text;html=1;strokeColor=none;fillColor=none;align=center;verticalAlign=middle;whiteSpace=wrap;rounded=0;" vertex="1" parent="1">
          <mxGeometry x="884.13" y="65" width="40" height="20" as="geometry" />
        </mxCell>
        <mxCell id="kvO_svWgyWc9nyd4nfGL-53" value="" style="endArrow=classic;html=1;" edge="1" parent="1">
          <mxGeometry width="50" height="50" relative="1" as="geometry">
            <mxPoint x="700" y="209" as="sourcePoint" />
            <mxPoint x="604" y="30" as="targetPoint" />
            <Array as="points">
              <mxPoint x="700" y="30" />
            </Array>
          </mxGeometry>
        </mxCell>
        <mxCell id="kvO_svWgyWc9nyd4nfGL-54" value="" style="endArrow=classic;html=1;entryX=0.457;entryY=-0.016;entryDx=0;entryDy=0;exitX=1;exitY=0.75;exitDx=0;exitDy=0;entryPerimeter=0;" edge="1" parent="1" source="kvO_svWgyWc9nyd4nfGL-3" target="kvO_svWgyWc9nyd4nfGL-38">
          <mxGeometry width="50" height="50" relative="1" as="geometry">
            <mxPoint x="636.5" y="92" as="sourcePoint" />
            <mxPoint x="580.5799999999999" y="197" as="targetPoint" />
            <Array as="points">
              <mxPoint x="655" y="63" />
            </Array>
          </mxGeometry>
        </mxCell>
        <mxCell id="kvO_svWgyWc9nyd4nfGL-55" value="agent" style="shape=ext;rounded=1;html=1;whiteSpace=wrap;dashed=1;dashPattern=1 4;fillColor=#f5f5f5;strokeColor=#666666;fontColor=#333333;" vertex="1" parent="1">
          <mxGeometry x="715" y="190" width="44.5" height="20" as="geometry" />
        </mxCell>
        <mxCell id="kvO_svWgyWc9nyd4nfGL-56" value="" style="endArrow=classic;html=1;exitX=1;exitY=0.5;exitDx=0;exitDy=0;" edge="1" parent="1" source="kvO_svWgyWc9nyd4nfGL-55">
          <mxGeometry width="50" height="50" relative="1" as="geometry">
            <mxPoint x="759.5" y="185" as="sourcePoint" />
            <mxPoint x="800" y="29" as="targetPoint" />
            <Array as="points">
              <mxPoint x="800" y="200" />
            </Array>
          </mxGeometry>
        </mxCell>
        <mxCell id="kvO_svWgyWc9nyd4nfGL-57" value="" style="endArrow=classic;html=1;entryX=0.209;entryY=0;entryDx=0;entryDy=0;exitX=0.963;exitY=0.982;exitDx=0;exitDy=0;exitPerimeter=0;entryPerimeter=0;" edge="1" parent="1" source="kvO_svWgyWc9nyd4nfGL-3" target="kvO_svWgyWc9nyd4nfGL-38">
          <mxGeometry width="50" height="50" relative="1" as="geometry">
            <mxPoint x="530" y="151" as="sourcePoint" />
            <mxPoint x="580" y="101" as="targetPoint" />
          </mxGeometry>
        </mxCell>
        <mxCell id="kvO_svWgyWc9nyd4nfGL-58" value="注册服务" style="text;html=1;strokeColor=none;fillColor=none;align=center;verticalAlign=middle;whiteSpace=wrap;rounded=0;" vertex="1" parent="1">
          <mxGeometry x="670" y="50" width="63" height="20" as="geometry" />
        </mxCell>
        <mxCell id="kvO_svWgyWc9nyd4nfGL-59" value="获取配置信息" style="text;html=1;strokeColor=none;fillColor=none;align=center;verticalAlign=middle;whiteSpace=wrap;rounded=0;" vertex="1" parent="1">
          <mxGeometry x="557.5" y="163" width="73.5" height="20" as="geometry" />
        </mxCell>
        <mxCell id="kvO_svWgyWc9nyd4nfGL-60" value="获取服务列表" style="text;html=1;strokeColor=none;fillColor=none;align=center;verticalAlign=middle;whiteSpace=wrap;rounded=0;" vertex="1" parent="1">
          <mxGeometry x="613" y="105" width="79.87" height="20" as="geometry" />
        </mxCell>
        <mxCell id="kvO_svWgyWc9nyd4nfGL-61" value="" style="shape=ext;rounded=1;html=1;whiteSpace=wrap;dashed=1;dashPattern=1 4;fillColor=#dae8fc;strokeColor=#6c8ebf;" vertex="1" parent="1">
          <mxGeometry x="241" y="420" width="59" height="60" as="geometry" />
        </mxCell>
        <mxCell id="kvO_svWgyWc9nyd4nfGL-62" value="" style="shape=image;html=1;verticalAlign=top;verticalLabelPosition=bottom;labelBackgroundColor=#ffffff;imageAspect=0;aspect=fixed;image=https://cdn4.iconfinder.com/data/icons/logos-and-brands/512/144_Gitlab_logo_logos-128.png;strokeWidth=1;" vertex="1" parent="1">
          <mxGeometry x="256.25" y="421.5" width="30" height="30" as="geometry" />
        </mxCell>
        <mxCell id="kvO_svWgyWc9nyd4nfGL-63" value="gitlab代码仓库" style="text;html=1;strokeColor=none;fillColor=none;align=center;verticalAlign=middle;whiteSpace=wrap;rounded=0;" vertex="1" parent="1">
          <mxGeometry x="241" y="456.5" width="61.5" height="12" as="geometry" />
        </mxCell>
        <mxCell id="kvO_svWgyWc9nyd4nfGL-64" value="" style="shape=ext;rounded=1;html=1;whiteSpace=wrap;dashed=1;dashPattern=1 4;fillColor=#dae8fc;strokeColor=#6c8ebf;" vertex="1" parent="1">
          <mxGeometry x="433.5" y="410" width="76.5" height="90" as="geometry" />
        </mxCell>
        <mxCell id="kvO_svWgyWc9nyd4nfGL-65" value="" style="shape=image;html=1;verticalAlign=top;verticalLabelPosition=bottom;labelBackgroundColor=#ffffff;imageAspect=0;aspect=fixed;image=https://cdn4.iconfinder.com/data/icons/logos-brands-5/24/jenkins-128.png;strokeWidth=1;" vertex="1" parent="1">
          <mxGeometry x="449" y="410" width="40" height="40" as="geometry" />
        </mxCell>
        <mxCell id="kvO_svWgyWc9nyd4nfGL-66" value="Jenkins服务器&lt;br&gt;持续集成&lt;br&gt;持续部署" style="text;html=1;strokeColor=none;fillColor=none;align=center;verticalAlign=middle;whiteSpace=wrap;rounded=0;" vertex="1" parent="1">
          <mxGeometry x="418.88" y="450" width="104.75" height="45" as="geometry" />
        </mxCell>
        <mxCell id="kvO_svWgyWc9nyd4nfGL-67" value="" style="endArrow=classic;html=1;entryX=0;entryY=0.5;entryDx=0;entryDy=0;exitX=1;exitY=0;exitDx=0;exitDy=0;" edge="1" parent="1" source="kvO_svWgyWc9nyd4nfGL-63" target="kvO_svWgyWc9nyd4nfGL-64">
          <mxGeometry width="50" height="50" relative="1" as="geometry">
            <mxPoint x="331.5" y="576.0576470588235" as="sourcePoint" />
            <mxPoint x="391.5" y="573.94" as="targetPoint" />
          </mxGeometry>
        </mxCell>
        <mxCell id="kvO_svWgyWc9nyd4nfGL-68" value="获取最新的代码" style="text;html=1;strokeColor=none;fillColor=none;align=center;verticalAlign=middle;whiteSpace=wrap;rounded=0;" vertex="1" parent="1">
          <mxGeometry x="302" y="434" width="94.25" height="20" as="geometry" />
        </mxCell>
        <mxCell id="kvO_svWgyWc9nyd4nfGL-69" value="" style="endArrow=classic;html=1;exitX=1;exitY=0.582;exitDx=0;exitDy=0;exitPerimeter=0;" edge="1" parent="1" source="kvO_svWgyWc9nyd4nfGL-64">
          <mxGeometry width="50" height="50" relative="1" as="geometry">
            <mxPoint x="590" y="510" as="sourcePoint" />
            <mxPoint x="620" y="395" as="targetPoint" />
            <Array as="points">
              <mxPoint x="621" y="462" />
            </Array>
          </mxGeometry>
        </mxCell>
        <mxCell id="kvO_svWgyWc9nyd4nfGL-70" value="" style="shape=ext;rounded=1;html=1;whiteSpace=wrap;dashed=1;dashPattern=1 4;fillColor=#dae8fc;strokeColor=#6c8ebf;" vertex="1" parent="1">
          <mxGeometry x="440.63" y="304.5" width="49.37" height="55.5" as="geometry" />
        </mxCell>
        <mxCell id="kvO_svWgyWc9nyd4nfGL-71" value="" style="points=[[0.015,0.015,0],[0.985,0.015,0],[0.985,0.985,0],[0.015,0.985,0],[0.25,0,0],[0.5,0,0],[0.75,0,0],[1,0.25,0],[1,0.5,0],[1,0.75,0],[0.75,1,0],[0.5,1,0],[0.25,1,0],[0,0.75,0],[0,0.5,0],[0,0.25,0]];verticalLabelPosition=bottom;html=1;verticalAlign=top;aspect=fixed;align=center;pointerEvents=1;shape=mxgraph.cisco19.rect;prIcon=nexus_9300;fillColor=#FAFAFA;strokeColor=#005073;" vertex="1" parent="1">
          <mxGeometry x="453.88" y="310" width="28" height="28" as="geometry" />
        </mxCell>
        <mxCell id="kvO_svWgyWc9nyd4nfGL-72" value="nexus" style="text;html=1;strokeColor=none;fillColor=none;align=center;verticalAlign=middle;whiteSpace=wrap;rounded=0;" vertex="1" parent="1">
          <mxGeometry x="436" y="336" width="63" height="20" as="geometry" />
        </mxCell>
        <mxCell id="kvO_svWgyWc9nyd4nfGL-73" value="" style="endArrow=classic;html=1;entryX=0.5;entryY=1;entryDx=0;entryDy=0;" edge="1" parent="1">
          <mxGeometry relative="1" as="geometry">
            <mxPoint x="469.56999999999994" y="411" as="sourcePoint" />
            <mxPoint x="469.135" y="359" as="targetPoint" />
            <Array as="points">
              <mxPoint x="469.57" y="385" />
            </Array>
          </mxGeometry>
        </mxCell>
        <mxCell id="kvO_svWgyWc9nyd4nfGL-74" value="Code Build" style="edgeLabel;resizable=0;html=1;align=center;verticalAlign=middle;" connectable="0" vertex="1" parent="kvO_svWgyWc9nyd4nfGL-73">
          <mxGeometry relative="1" as="geometry" />
        </mxCell>
        <mxCell id="kvO_svWgyWc9nyd4nfGL-75" value="" style="edgeStyle=orthogonalEdgeStyle;rounded=0;orthogonalLoop=1;jettySize=auto;html=1;entryX=0.109;entryY=-0.112;entryDx=0;entryDy=0;entryPerimeter=0;" edge="1" parent="1" source="kvO_svWgyWc9nyd4nfGL-76" target="kvO_svWgyWc9nyd4nfGL-79">
          <mxGeometry relative="1" as="geometry">
            <mxPoint x="906.70775" y="587.38" as="targetPoint" />
          </mxGeometry>
        </mxCell>
        <mxCell id="kvO_svWgyWc9nyd4nfGL-76" value="&lt;span style=&quot;font-family: &amp;#34;arial&amp;#34; ; font-size: 13.3333px ; text-align: left ; background-color: rgb(255 , 255 , 255)&quot;&gt;Prometheus&lt;br&gt;server&lt;br&gt;&lt;/span&gt;" style="shape=ext;rounded=1;html=1;whiteSpace=wrap;dashed=1;dashPattern=1 4;fillColor=#fff2cc;strokeColor=#d6b656;" vertex="1" parent="1">
          <mxGeometry x="791.5" y="558.88" width="120" height="65.5" as="geometry" />
        </mxCell>
        <mxCell id="kvO_svWgyWc9nyd4nfGL-77" value="" style="shape=ext;rounded=1;html=1;whiteSpace=wrap;dashed=1;dashPattern=1 4;fillColor=#fff2cc;strokeColor=#d6b656;" vertex="1" parent="1">
          <mxGeometry x="1023.1300000000001" y="552.63" width="74.25" height="70" as="geometry" />
        </mxCell>
        <mxCell id="kvO_svWgyWc9nyd4nfGL-78" value="&lt;font style=&quot;vertical-align: inherit&quot;&gt;&lt;font style=&quot;vertical-align: inherit&quot;&gt;grafana读取数据库信息并展示&lt;/font&gt;&lt;/font&gt;" style="text;html=1;strokeColor=none;fillColor=none;align=center;verticalAlign=middle;whiteSpace=wrap;rounded=0;" vertex="1" parent="1">
          <mxGeometry x="923.13" y="558" width="100" height="30" as="geometry" />
        </mxCell>
        <mxCell id="kvO_svWgyWc9nyd4nfGL-79" value="grafana" style="text;html=1;strokeColor=none;fillColor=none;align=center;verticalAlign=middle;whiteSpace=wrap;rounded=0;" vertex="1" parent="1">
          <mxGeometry x="1013.75" y="594.13" width="94.25" height="20" as="geometry" />
        </mxCell>
        <mxCell id="kvO_svWgyWc9nyd4nfGL-80" value="" style="shape=image;html=1;verticalAlign=top;verticalLabelPosition=bottom;labelBackgroundColor=#ffffff;imageAspect=0;aspect=fixed;image=https://cdn4.iconfinder.com/data/icons/logos-brands-5/24/grafana-128.png;strokeWidth=1;" vertex="1" parent="1">
          <mxGeometry x="1039" y="556.63" width="39" height="39" as="geometry" />
        </mxCell>
        <mxCell id="kvO_svWgyWc9nyd4nfGL-81" value="" style="endArrow=classic;html=1;entryX=0;entryY=0.5;entryDx=0;entryDy=0;" edge="1" parent="1" target="kvO_svWgyWc9nyd4nfGL-76">
          <mxGeometry width="50" height="50" relative="1" as="geometry">
            <mxPoint x="728" y="592.1300000000001" as="sourcePoint" />
            <mxPoint x="798.96" y="579.9064999999999" as="targetPoint" />
          </mxGeometry>
        </mxCell>
        <mxCell id="kvO_svWgyWc9nyd4nfGL-82" value="" style="shape=ext;rounded=1;html=1;whiteSpace=wrap;dashed=1;dashPattern=1 4;fillColor=#ffe6cc;strokeColor=#d79b00;" vertex="1" parent="1">
          <mxGeometry x="643" y="561.13" width="77" height="69.87" as="geometry" />
        </mxCell>
        <mxCell id="kvO_svWgyWc9nyd4nfGL-83" value="" style="verticalLabelPosition=bottom;html=1;verticalAlign=top;align=center;strokeColor=none;fillColor=#00BEF2;shape=mxgraph.azure.mysql_database;" vertex="1" parent="1">
          <mxGeometry x="660.5" y="567.76" width="40.5" height="35.24" as="geometry" />
        </mxCell>
        <mxCell id="kvO_svWgyWc9nyd4nfGL-84" value="mysql" style="text;html=1;strokeColor=none;fillColor=none;align=center;verticalAlign=middle;whiteSpace=wrap;rounded=0;" vertex="1" parent="1">
          <mxGeometry x="650" y="603.13" width="63" height="19.87" as="geometry" />
        </mxCell>
        <mxCell id="kvO_svWgyWc9nyd4nfGL-85" value="" style="shape=ext;rounded=1;html=1;whiteSpace=wrap;dashed=1;dashPattern=1 4;fillColor=#fff2cc;strokeColor=#d6b656;" vertex="1" parent="1">
          <mxGeometry x="554" y="560" width="70" height="70" as="geometry" />
        </mxCell>
        <mxCell id="kvO_svWgyWc9nyd4nfGL-86" value="redis" style="text;html=1;strokeColor=none;fillColor=none;align=center;verticalAlign=middle;whiteSpace=wrap;rounded=0;" vertex="1" parent="1">
          <mxGeometry x="556" y="608" width="67" height="23" as="geometry" />
        </mxCell>
        <mxCell id="kvO_svWgyWc9nyd4nfGL-87" value="" style="aspect=fixed;html=1;points=[];align=center;image;fontSize=12;image=img/lib/mscae/Cache_Redis_Product.svg;strokeWidth=1;" vertex="1" parent="1">
          <mxGeometry x="562.0000000000001" y="568.25" width="50" height="42" as="geometry" />
        </mxCell>
        <mxCell id="kvO_svWgyWc9nyd4nfGL-88" value="" style="shape=ext;rounded=1;html=1;whiteSpace=wrap;dashed=1;dashPattern=1 4;fillColor=#fff2cc;strokeColor=#d6b656;" vertex="1" parent="1">
          <mxGeometry x="464" y="560" width="70" height="70" as="geometry" />
        </mxCell>
        <mxCell id="kvO_svWgyWc9nyd4nfGL-89" value="" style="outlineConnect=0;fontColor=#232F3E;gradientColor=#F34482;gradientDirection=north;fillColor=#BC1356;strokeColor=#ffffff;dashed=0;verticalLabelPosition=bottom;verticalAlign=top;align=center;html=1;fontSize=12;fontStyle=0;aspect=fixed;shape=mxgraph.aws4.resourceIcon;resIcon=mxgraph.aws4.mq;" vertex="1" parent="1">
          <mxGeometry x="478.13" y="567.25" width="42.5" height="42.5" as="geometry" />
        </mxCell>
        <mxCell id="kvO_svWgyWc9nyd4nfGL-90" value="rabbitMQ" style="text;html=1;strokeColor=none;fillColor=none;align=center;verticalAlign=middle;whiteSpace=wrap;rounded=0;" vertex="1" parent="1">
          <mxGeometry x="466.63" y="610.5" width="67.37" height="20" as="geometry" />
        </mxCell>
        <mxCell id="kvO_svWgyWc9nyd4nfGL-91" value="" style="endArrow=classic;startArrow=classic;html=1;" edge="1" parent="1" source="kvO_svWgyWc9nyd4nfGL-89" target="kvO_svWgyWc9nyd4nfGL-2">
          <mxGeometry width="50" height="50" relative="1" as="geometry">
            <mxPoint x="598" y="550" as="sourcePoint" />
            <mxPoint x="598" y="510" as="targetPoint" />
          </mxGeometry>
        </mxCell>
        <mxCell id="kvO_svWgyWc9nyd4nfGL-92" value="" style="endArrow=classic;startArrow=classic;html=1;exitX=0.6;exitY=-0.043;exitDx=0;exitDy=0;exitPerimeter=0;" edge="1" parent="1" source="kvO_svWgyWc9nyd4nfGL-85" target="kvO_svWgyWc9nyd4nfGL-2">
          <mxGeometry width="50" height="50" relative="1" as="geometry">
            <mxPoint x="608" y="560" as="sourcePoint" />
            <mxPoint x="608" y="520" as="targetPoint" />
          </mxGeometry>
        </mxCell>
        <mxCell id="kvO_svWgyWc9nyd4nfGL-93" value="" style="endArrow=classic;startArrow=classic;html=1;entryX=0.531;entryY=1;entryDx=0;entryDy=0;entryPerimeter=0;exitX=0.25;exitY=0;exitDx=0;exitDy=0;" edge="1" parent="1" source="kvO_svWgyWc9nyd4nfGL-82" target="kvO_svWgyWc9nyd4nfGL-2">
          <mxGeometry width="50" height="50" relative="1" as="geometry">
            <mxPoint x="618" y="570" as="sourcePoint" />
            <mxPoint x="618" y="530" as="targetPoint" />
          </mxGeometry>
        </mxCell>
        <mxCell id="kvO_svWgyWc9nyd4nfGL-94" value="" style="image;html=1;image=img/lib/clip_art/people/Suit_Man_128x128.png;rounded=1;dashed=1;dashPattern=1 4;" vertex="1" parent="1">
          <mxGeometry x="80" y="191" width="80" height="80" as="geometry" />
        </mxCell>
        <mxCell id="kvO_svWgyWc9nyd4nfGL-95" value="" style="shape=flexArrow;endArrow=classic;html=1;" edge="1" parent="1" target="kvO_svWgyWc9nyd4nfGL-2">
          <mxGeometry width="50" height="50" relative="1" as="geometry">
            <mxPoint x="150" y="240" as="sourcePoint" />
            <mxPoint x="160" y="205" as="targetPoint" />
          </mxGeometry>
        </mxCell>
      </root>
    </mxGraphModel>
  </diagram>
</mxfile>
